<?xml version="1.0" standalone="no"?>
<!DOCTYPE svg PUBLIC "-//W3C//DTD SVG 20010904//EN"
 "http://www.w3.org/TR/2001/REC-SVG-20010904/DTD/svg10.dtd">
<svg version="1.0" xmlns="http://www.w3.org/2000/svg"
 width="1000.000000pt" height="1000.000000pt" viewBox="0 0 1000.000000 1000.000000"
 preserveAspectRatio="xMidYMid meet">
<metadata>
Created by potrace 1.11, written by Peter Selinger 2001-2013
</metadata>
<g transform="translate(0.000000,1000.000000) scale(0.100000,-0.100000)"
fill="#000000" stroke="none">
<path d="M800 7525 l0 -1675 490 0 490 0 0 1185 0 1185 1185 0 1185 0 0 490 0
490 -1675 0 -1675 0 0 -1675z"/>
<path d="M5850 8710 l0 -490 1185 0 1185 0 0 -1185 0 -1185 490 0 490 0 0
1675 0 1675 -1675 0 -1675 0 0 -490z"/>
<path d="M4345 6300 c-164 -33 -304 -136 -403 -294 l-37 -60 -6 65 c-4 35 -10
108 -14 162 l-7 97 -369 0 -369 0 0 -1270 0 -1270 395 0 395 0 0 809 0 809 33
48 c92 133 268 187 547 167 80 -6 148 -8 151 -5 4 4 8 169 10 367 l4 360 -65
12 c-73 14 -204 15 -265 3z"/>
<path d="M5811 6300 c-41 -6 -116 -21 -167 -35 -314 -83 -545 -272 -684 -559
-107 -221 -142 -394 -143 -696 -1 -322 34 -504 143 -725 145 -296 387 -491
702 -565 430 -101 851 -11 1119 239 173 160 268 355 286 588 l6 83 -372 0
-371 0 0 -32 c0 -54 -30 -141 -65 -190 -93 -128 -345 -158 -490 -58 -112 77
-160 231 -172 550 -6 181 9 409 33 504 34 131 103 224 199 268 72 33 217 32
292 -1 111 -49 188 -170 200 -313 l6 -68 368 0 369 0 0 53 c-1 185 -63 389
-164 541 -137 205 -345 339 -615 396 -112 24 -364 34 -480 20z"/>
<path d="M800 2475 l0 -1675 1675 0 1675 0 0 490 0 490 -1185 0 -1185 0 0
1185 0 1185 -490 0 -490 0 0 -1675z"/>
<path d="M8220 2965 l0 -1185 -1185 0 -1185 0 0 -490 0 -490 1675 0 1675 0 0
1675 0 1675 -490 0 -490 0 0 -1185z"/>
</g>
</svg>
